# xmcd
#
# Track frame offsets:
#	150
#	19780
#	32233
#	51311
#	72625
#	89916
#	103362
#	118393
#	131603
#	145221
#	167663
#	179735
#	196602
#	212621
#
# Disc length: 3059 seconds
#
# Revision: 0
# Processed by: cddbd v1.5.2PL0 Copyright (c) Steve Scherf et al.
# Submitted via: dBpowerAMP V4.0
#
DISCID=e00bf10e
DTITLE=Renaud - Boucan d'enfer
DYEAR=2002
DGENRE=Vocal
TTITLE0=Docteur Renaud, Mister Renard
TTITLE1=Petit Pédé
TTITLE2=Je vis caché
TTITLE3=Coeur perdu
TTITLE4=Manhattan-Kaboul (avec Axelle Red)
TTITLE5=Elle a vu le loup
TTITLE6=Tout arrêter
TTITLE7=Baltique
TTITLE8=L'entarté
TTITLE9=Boucan d'enfer
TTITLE10=Mon nain de jardin
TTITLE11=Mal barrés
TTITLE12=Corsic'armes
TTITLE13=Mon bistrot préféré
EXTD=
EXTT0=
EXTT1=
EXTT2=
EXTT3=
EXTT4=
EXTT5=
EXTT6=
EXTT7=
EXTT8=
EXTT9=
EXTT10=
EXTT11=
EXTT12=
EXTT13=
PLAYORDER=
